<svg width="14" height="14" viewBox="0 0 14 14" fill="none" xmlns="http://www.w3.org/2000/svg">
<path d="M0.293448 0.293723C0.386319 0.200617 0.496647 0.126747 0.61811 0.076345C0.739574 0.0259431 0.869788 0 1.00129 0C1.1328 0 1.26301 0.0259431 1.38448 0.076345C1.50594 0.126747 1.61627 0.200617 1.70914 0.293723L6.99999 5.58657L12.2908 0.293723C12.3838 0.200767 12.4941 0.127031 12.6156 0.0767236C12.737 0.0264163 12.8672 0.000523453 12.9987 0.000523453C13.1301 0.000523453 13.2603 0.0264163 13.3818 0.0767236C13.5032 0.127031 13.6136 0.200767 13.7065 0.293723C13.7995 0.386679 13.8732 0.497033 13.9235 0.618485C13.9738 0.739938 13.9997 0.87011 13.9997 1.00157C13.9997 1.13303 13.9738 1.2632 13.9235 1.38465C13.8732 1.50611 13.7995 1.61646 13.7065 1.70941L8.41368 7.00026L13.7065 12.2911C13.7995 12.3841 13.8732 12.4944 13.9235 12.6159C13.9738 12.7373 13.9997 12.8675 13.9997 12.999C13.9997 13.1304 13.9738 13.2606 13.9235 13.382C13.8732 13.5035 13.7995 13.6138 13.7065 13.7068C13.6136 13.7998 13.5032 13.8735 13.3818 13.9238C13.2603 13.9741 13.1301 14 12.9987 14C12.8672 14 12.737 13.9741 12.6156 13.9238C12.4941 13.8735 12.3838 13.7998 12.2908 13.7068L6.99999 8.41395L1.70914 13.7068C1.61618 13.7998 1.50583 13.8735 1.38438 13.9238C1.26293 13.9741 1.13275 14 1.00129 14C0.869835 14 0.739663 13.9741 0.618211 13.9238C0.496758 13.8735 0.386404 13.7998 0.293448 13.7068C0.200493 13.6138 0.126756 13.5035 0.0764489 13.382C0.0261417 13.2606 0.000248795 13.1304 0.000248795 12.999C0.000248795 12.8675 0.0261417 12.7373 0.0764489 12.6159C0.126756 12.4944 0.200493 12.3841 0.293448 12.2911L5.5863 7.00026L0.293448 1.70941C0.200342 1.61654 0.126472 1.50622 0.0760704 1.38475C0.0256684 1.26329 -0.000274658 1.13307 -0.000274658 1.00157C-0.000274658 0.870063 0.0256684 0.739849 0.0760704 0.618385C0.126472 0.496921 0.200342 0.386594 0.293448 0.293723Z" fill="#FEC901"/>
</svg>
