<svg width="32" height="32" viewBox="0 0 32 32" fill="none" xmlns="http://www.w3.org/2000/svg">
<path d="M27.325 4.65208C25.8513 3.17144 24.0963 1.99758 22.1623 1.1989C20.2283 0.400229 18.154 -0.00728852 16.0603 9.86608e-05C7.28679 9.86608e-05 0.136615 7.11608 0.128579 15.852C0.128579 18.65 0.863887 21.372 2.25213 23.782L0 32L8.446 29.796C10.7825 31.0618 13.4002 31.7253 16.0603 31.726H16.0683C24.8438 31.726 31.992 24.61 32 15.866C32.002 13.7821 31.5898 11.7184 30.7871 9.79383C29.9844 7.86921 28.8071 6.12174 27.3229 4.65208H27.325ZM16.0603 29.042C13.6876 29.0428 11.3585 28.4072 9.31793 27.202L8.83576 26.914L3.82521 28.222L5.16323 23.356L4.84982 22.854C3.52347 20.7547 2.82199 18.3241 2.82672 15.844C2.82672 8.59207 8.76745 2.67609 16.0683 2.67609C17.8076 2.67298 19.5303 3.01264 21.1372 3.67547C22.744 4.3383 24.2031 5.3112 25.4304 6.53808C26.662 7.76017 27.6384 9.21292 28.3032 10.8125C28.968 12.4121 29.3081 14.1269 29.3039 15.858C29.2958 23.136 23.3551 29.042 16.0603 29.042V29.042ZM23.3229 19.174C22.9272 18.976 20.9724 18.018 20.6047 17.882C20.2391 17.752 19.9719 17.684 19.7107 18.08C19.4435 18.474 18.6801 19.372 18.451 19.63C18.222 19.896 17.9849 19.926 17.5871 19.73C17.1914 19.53 15.9076 19.114 14.3887 17.76C13.2034 16.71 12.4098 15.4101 12.1728 15.0161C11.9437 14.6201 12.1507 14.4081 12.3496 14.2101C12.5244 14.0341 12.7454 13.7461 12.9442 13.5181C13.1451 13.2901 13.2114 13.1221 13.342 12.8581C13.4726 12.5901 13.4103 12.3621 13.3119 12.1641C13.2114 11.9661 12.4179 10.0121 12.0824 9.22407C11.7609 8.44607 11.4334 8.55407 11.1883 8.54407C10.9593 8.53007 10.6921 8.53007 10.4249 8.53007C10.2231 8.53506 10.0246 8.58152 9.84167 8.66653C9.65878 8.75154 9.49552 8.87327 9.36213 9.02407C8.99648 9.42007 7.97388 10.3781 7.97388 12.3321C7.97388 14.2861 9.4003 16.164 9.6012 16.43C9.79809 16.696 12.4018 20.694 16.3978 22.414C17.342 22.824 18.0854 23.066 18.666 23.25C19.6203 23.554 20.4822 23.508 21.1693 23.41C21.9327 23.294 23.5218 22.45 23.8574 21.524C24.1868 20.596 24.1868 19.804 24.0864 19.638C23.9879 19.47 23.7207 19.372 23.3229 19.174V19.174Z" fill="#633100"/>
</svg>
